<svg width="202" height="42" viewBox="0 0 202 42" fill="none" xmlns="http://www.w3.org/2000/svg">
<path d="M41.0107 33.7109H44.7197V37.2617H46.4336V33.7109H50.1514V31.9971H46.4336V28.4463H44.7197V31.9971H41.0107V33.7109ZM56.7432 25.1064C54.0625 25.1064 52.1025 26.9258 52.1025 29.457V29.4746C52.1025 31.874 53.8604 33.6406 56.2861 33.6406C58.0088 33.6406 59.292 32.7441 59.793 31.6016H59.8369C59.8369 31.7158 59.8369 31.8301 59.8281 31.9443C59.749 34.458 58.8613 36.5586 56.6816 36.5586C55.4688 36.5586 54.6426 35.9609 54.2822 35.0117L54.2471 34.9238H52.2783L52.3047 35.0293C52.709 36.9189 54.4053 38.2109 56.6641 38.2109C59.8369 38.2109 61.7266 35.7148 61.7266 31.4873V31.4697C61.7266 26.9082 59.3359 25.1064 56.7432 25.1064ZM56.7344 32.041C55.1963 32.041 54.0625 30.9512 54.0625 29.4219V29.4043C54.0625 27.9277 55.2666 26.7588 56.7607 26.7588C58.2725 26.7588 59.4502 27.9453 59.4502 29.4482V29.457C59.4502 30.96 58.2812 32.041 56.7344 32.041ZM68.0811 25.1064C65.4004 25.1064 63.4404 26.9258 63.4404 29.457V29.4746C63.4404 31.874 65.1982 33.6406 67.624 33.6406C69.3467 33.6406 70.6299 32.7441 71.1309 31.6016H71.1748C71.1748 31.7158 71.1748 31.8301 71.166 31.9443C71.0869 34.458 70.1992 36.5586 68.0195 36.5586C66.8066 36.5586 65.9805 35.9609 65.6201 35.0117L65.585 34.9238H63.6162L63.6426 35.0293C64.0469 36.9189 65.7432 38.2109 68.002 38.2109C71.1748 38.2109 73.0645 35.7148 73.0645 31.4873V31.4697C73.0645 26.9082 70.6738 25.1064 68.0811 25.1064ZM68.0723 32.041C66.5342 32.041 65.4004 30.9512 65.4004 29.4219V29.4043C65.4004 27.9277 66.6045 26.7588 68.0986 26.7588C69.6104 26.7588 70.7881 27.9453 70.7881 29.4482V29.457C70.7881 30.96 69.6191 32.041 68.0723 32.041ZM79.3926 38.2109C82.2051 38.2109 84.1826 36.708 84.1826 34.5635V34.5459C84.1826 32.9463 83.04 31.6807 81.3877 31.3203V31.2764C82.8027 30.8721 83.7256 29.8174 83.7256 28.4727V28.4551C83.7256 26.5215 81.915 25.1064 79.3926 25.1064C76.8701 25.1064 75.0684 26.5215 75.0684 28.4551V28.4727C75.0684 29.8174 75.9912 30.8721 77.4062 31.2764V31.3203C75.7539 31.6807 74.6025 32.9463 74.6025 34.5459V34.5635C74.6025 36.708 76.5889 38.2109 79.3926 38.2109ZM79.3926 30.6172C77.9863 30.6172 77.0195 29.7998 77.0195 28.6484V28.6309C77.0195 27.4707 77.9863 26.6621 79.3926 26.6621C80.7988 26.6621 81.7744 27.4707 81.7744 28.6309V28.6484C81.7744 29.7998 80.8076 30.6172 79.3926 30.6172ZM79.3926 36.6377C77.7754 36.6377 76.624 35.7148 76.624 34.4316V34.4141C76.624 33.1221 77.7666 32.1904 79.3926 32.1904C81.0186 32.1904 82.1611 33.1221 82.1611 34.4141V34.4316C82.1611 35.7148 81.0098 36.6377 79.3926 36.6377ZM94.1846 25.1064C91.5039 25.1064 89.5439 26.9258 89.5439 29.457V29.4746C89.5439 31.874 91.3018 33.6406 93.7275 33.6406C95.4502 33.6406 96.7334 32.7441 97.2344 31.6016H97.2783C97.2783 31.7158 97.2783 31.8301 97.2695 31.9443C97.1904 34.458 96.3027 36.5586 94.123 36.5586C92.9102 36.5586 92.084 35.9609 91.7236 35.0117L91.6885 34.9238H89.7197L89.7461 35.0293C90.1504 36.9189 91.8467 38.2109 94.1055 38.2109C97.2783 38.2109 99.168 35.7148 99.168 31.4873V31.4697C99.168 26.9082 96.7773 25.1064 94.1846 25.1064ZM94.1758 32.041C92.6377 32.041 91.5039 30.9512 91.5039 29.4219V29.4043C91.5039 27.9277 92.708 26.7588 94.2021 26.7588C95.7139 26.7588 96.8916 27.9453 96.8916 29.4482V29.457C96.8916 30.96 95.7227 32.041 94.1758 32.041ZM105.522 25.1064C102.842 25.1064 100.882 26.9258 100.882 29.457V29.4746C100.882 31.874 102.64 33.6406 105.065 33.6406C106.788 33.6406 108.071 32.7441 108.572 31.6016H108.616C108.616 31.7158 108.616 31.8301 108.607 31.9443C108.528 34.458 107.641 36.5586 105.461 36.5586C104.248 36.5586 103.422 35.9609 103.062 35.0117L103.026 34.9238H101.058L101.084 35.0293C101.488 36.9189 103.185 38.2109 105.443 38.2109C108.616 38.2109 110.506 35.7148 110.506 31.4873V31.4697C110.506 26.9082 108.115 25.1064 105.522 25.1064ZM105.514 32.041C103.976 32.041 102.842 30.9512 102.842 29.4219V29.4043C102.842 27.9277 104.046 26.7588 105.54 26.7588C107.052 26.7588 108.229 27.9453 108.229 29.4482V29.457C108.229 30.96 107.061 32.041 105.514 32.041ZM120.517 25.1064C117.836 25.1064 115.876 26.9258 115.876 29.457V29.4746C115.876 31.874 117.634 33.6406 120.06 33.6406C121.782 33.6406 123.065 32.7441 123.566 31.6016H123.61C123.61 31.7158 123.61 31.8301 123.602 31.9443C123.522 34.458 122.635 36.5586 120.455 36.5586C119.242 36.5586 118.416 35.9609 118.056 35.0117L118.021 34.9238H116.052L116.078 35.0293C116.482 36.9189 118.179 38.2109 120.438 38.2109C123.61 38.2109 125.5 35.7148 125.5 31.4873V31.4697C125.5 26.9082 123.109 25.1064 120.517 25.1064ZM120.508 32.041C118.97 32.041 117.836 30.9512 117.836 29.4219V29.4043C117.836 27.9277 119.04 26.7588 120.534 26.7588C122.046 26.7588 123.224 27.9453 123.224 29.4482V29.457C123.224 30.96 122.055 32.041 120.508 32.041ZM131.854 25.1064C129.174 25.1064 127.214 26.9258 127.214 29.457V29.4746C127.214 31.874 128.972 33.6406 131.397 33.6406C133.12 33.6406 134.403 32.7441 134.904 31.6016H134.948C134.948 31.7158 134.948 31.8301 134.939 31.9443C134.86 34.458 133.973 36.5586 131.793 36.5586C130.58 36.5586 129.754 35.9609 129.394 35.0117L129.358 34.9238H127.39L127.416 35.0293C127.82 36.9189 129.517 38.2109 131.775 38.2109C134.948 38.2109 136.838 35.7148 136.838 31.4873V31.4697C136.838 26.9082 134.447 25.1064 131.854 25.1064ZM131.846 32.041C130.308 32.041 129.174 30.9512 129.174 29.4219V29.4043C129.174 27.9277 130.378 26.7588 131.872 26.7588C133.384 26.7588 134.562 27.9453 134.562 29.4482V29.457C134.562 30.96 133.393 32.041 131.846 32.041ZM141.663 38H143.588V25.3174H141.646L138.306 27.6904V29.5537L141.619 27.2686H141.663V38ZM146.77 33.7109H152.421V31.9971H146.77V33.7109ZM157.202 38H159.127V25.3174H157.185L153.845 27.6904V29.5537L157.158 27.2686H157.202V38ZM166.756 38.2109C169.489 38.2109 171.414 36.4268 171.414 33.8516V33.834C171.414 31.4082 169.665 29.6592 167.239 29.6592C165.991 29.6592 164.937 30.1426 164.365 30.9951H164.321L164.708 26.9785H170.676V25.3174H163.117L162.493 32.6299H164.216C164.383 32.3486 164.585 32.1025 164.822 31.9004C165.332 31.4434 166.009 31.2148 166.791 31.2148C168.364 31.2148 169.48 32.3135 169.489 33.8691V33.8867C169.489 35.46 168.373 36.5674 166.773 36.5674C165.358 36.5674 164.321 35.6885 164.154 34.5459L164.146 34.4756H162.265L162.273 34.5811C162.449 36.6729 164.216 38.2109 166.756 38.2109ZM173.102 33.7109H178.753V31.9971H173.102V33.7109ZM180.818 38H189.493V36.3389H183.455V36.2598L186.338 33.4297C188.614 31.1797 189.291 30.1514 189.291 28.7012V28.6836C189.291 26.6357 187.551 25.1064 185.116 25.1064C182.638 25.1064 180.713 26.75 180.713 29.0176V29.0703H182.576V29.0176C182.594 27.7344 183.657 26.7324 185.143 26.7324C186.426 26.7324 187.34 27.5938 187.349 28.7979V28.8154C187.349 29.7998 186.971 30.4678 185.283 32.1553L180.818 36.6465V38ZM195.777 38.2109C198.511 38.2109 200.436 36.4268 200.436 33.8516V33.834C200.436 31.4082 198.687 29.6592 196.261 29.6592C195.013 29.6592 193.958 30.1426 193.387 30.9951H193.343L193.729 26.9785H199.697V25.3174H192.139L191.515 32.6299H193.237C193.404 32.3486 193.606 32.1025 193.844 31.9004C194.354 31.4434 195.03 31.2148 195.812 31.2148C197.386 31.2148 198.502 32.3135 198.511 33.8691V33.8867C198.511 35.46 197.395 36.5674 195.795 36.5674C194.38 36.5674 193.343 35.6885 193.176 34.5459L193.167 34.4756H191.286L191.295 34.5811C191.471 36.6729 193.237 38.2109 195.777 38.2109Z" fill="black"/>
<path d="M43.4521 14H44.6826V5.24316H47.793V4.13574H40.3418V5.24316H43.4521V14ZM49.9873 14.1367C51.5391 14.1367 52.7012 13.207 52.9336 12.0312L52.9473 11.9629H51.7783L51.7578 12.0244C51.5527 12.6328 50.917 13.084 50.0146 13.084C48.75 13.084 47.9434 12.2295 47.916 10.7666H53.0361V10.3291C53.0361 8.19629 51.8535 6.75391 49.9121 6.75391C47.9707 6.75391 46.7129 8.26465 46.7129 10.4658V10.4727C46.7129 12.708 47.9434 14.1367 49.9873 14.1367ZM49.9053 7.80664C50.9443 7.80664 51.71 8.45605 51.8262 9.83691H47.9365C48.0664 8.51074 48.873 7.80664 49.9053 7.80664ZM54.3008 14H55.4902V4.13574H54.3008V14ZM60.0225 14.1367C61.5742 14.1367 62.7363 13.207 62.9688 12.0312L62.9824 11.9629H61.8135L61.793 12.0244C61.5879 12.6328 60.9521 13.084 60.0498 13.084C58.7852 13.084 57.9785 12.2295 57.9512 10.7666H63.0713V10.3291C63.0713 8.19629 61.8887 6.75391 59.9473 6.75391C58.0059 6.75391 56.748 8.26465 56.748 10.4658V10.4727C56.748 12.708 57.9785 14.1367 60.0225 14.1367ZM59.9404 7.80664C60.9795 7.80664 61.7451 8.45605 61.8613 9.83691H57.9717C58.1016 8.51074 58.9082 7.80664 59.9404 7.80664ZM64.6572 14H65.8467V7.875H67.2959V6.89062H65.833V6.02246C65.833 5.31836 66.1611 4.9834 66.8174 4.9834C67.002 4.9834 67.1865 4.99023 67.3301 5.01074V4.04688C67.1523 4.01953 66.8721 3.99902 66.6055 3.99902C65.293 3.99902 64.6572 4.64844 64.6572 6.01562V6.89062H63.666V7.875H64.6572V14ZM70.7891 14.1367C72.751 14.1367 74.0771 12.7148 74.0771 10.4453V10.4316C74.0771 8.16211 72.7441 6.75391 70.7822 6.75391C68.8203 6.75391 67.4941 8.16895 67.4941 10.4316V10.4453C67.4941 12.708 68.8135 14.1367 70.7891 14.1367ZM70.7959 13.084C69.5381 13.084 68.7109 12.1201 68.7109 10.4453V10.4316C68.7109 8.77051 69.5449 7.80664 70.7822 7.80664C72.04 7.80664 72.8604 8.76367 72.8604 10.4316V10.4453C72.8604 12.1133 72.0469 13.084 70.7959 13.084ZM75.2803 14H76.4697V9.81641C76.4697 8.60645 77.2012 7.80664 78.3223 7.80664C79.416 7.80664 79.9561 8.44238 79.9561 9.59766V14H81.1455V9.38574C81.1455 7.76562 80.2432 6.75391 78.6846 6.75391C77.6045 6.75391 76.8799 7.23926 76.4971 7.90234H76.4697V6.89062H75.2803V14ZM85.5342 14H86.7236V9.61133C86.7236 8.53125 87.3252 7.88867 88.248 7.88867C88.5352 7.88867 88.7881 7.92285 88.8838 7.95703V6.80176C88.7881 6.78809 88.6104 6.75391 88.4053 6.75391C87.6055 6.75391 86.9902 7.27344 86.751 8.09375H86.7236V6.89062H85.5342V14ZM91.7959 14.1367C92.7461 14.1367 93.6006 13.624 94.0176 12.8447H94.0449V14H95.2344V9.08496C95.2344 7.66309 94.1816 6.75391 92.5 6.75391C90.8252 6.75391 89.8066 7.69727 89.7041 8.86621L89.6973 8.94141H90.8457L90.8594 8.87988C90.9961 8.24414 91.5703 7.80664 92.4863 7.80664C93.4775 7.80664 94.0449 8.33301 94.0449 9.20117V9.7959L92.0078 9.91211C90.374 10.0078 89.4307 10.7666 89.4307 11.9766V11.9902C89.4307 13.2822 90.3809 14.1367 91.7959 14.1367ZM90.6475 11.9902V11.9766C90.6475 11.3135 91.1943 10.8896 92.1445 10.835L94.0449 10.7188V11.2998C94.0449 12.332 93.1836 13.1045 92.0625 13.1045C91.208 13.1045 90.6475 12.6738 90.6475 11.9902ZM101.701 16.3926H102.891V6.89062H101.701V8.09375H101.674C101.236 7.30762 100.443 6.76758 99.4385 6.76758C97.6338 6.76758 96.3965 8.20996 96.3965 10.4316V10.4385C96.3965 12.6738 97.6201 14.123 99.4111 14.123C100.43 14.123 101.25 13.624 101.674 12.8447H101.701V16.3926ZM99.6709 13.0703C98.4062 13.0703 97.6133 12.0654 97.6133 10.4385V10.4316C97.6133 8.83887 98.4062 7.82031 99.6709 7.82031C100.874 7.82031 101.701 8.85254 101.701 10.4316V10.4385C101.701 12.0312 100.881 13.0703 99.6709 13.0703ZM106.507 14.1367C107.457 14.1367 108.312 13.624 108.729 12.8447H108.756V14H109.945V9.08496C109.945 7.66309 108.893 6.75391 107.211 6.75391C105.536 6.75391 104.518 7.69727 104.415 8.86621L104.408 8.94141H105.557L105.57 8.87988C105.707 8.24414 106.281 7.80664 107.197 7.80664C108.188 7.80664 108.756 8.33301 108.756 9.20117V9.7959L106.719 9.91211C105.085 10.0078 104.142 10.7666 104.142 11.9766V11.9902C104.142 13.2822 105.092 14.1367 106.507 14.1367ZM105.358 11.9902V11.9766C105.358 11.3135 105.905 10.8896 106.855 10.835L108.756 10.7188V11.2998C108.756 12.332 107.895 13.1045 106.773 13.1045C105.919 13.1045 105.358 12.6738 105.358 11.9902ZM111.456 14H112.646V9.54297C112.646 8.55176 113.329 7.80664 114.272 7.80664C115.154 7.80664 115.729 8.37402 115.729 9.23535V14H116.918V9.48145C116.918 8.51074 117.581 7.80664 118.524 7.80664C119.461 7.80664 120.001 8.3877 120.001 9.36523V14H121.19V9.0918C121.19 7.67676 120.281 6.75391 118.873 6.75391C117.875 6.75391 117.041 7.2666 116.645 8.12109H116.617C116.31 7.25293 115.592 6.75391 114.621 6.75391C113.705 6.75391 112.994 7.22559 112.673 7.92969H112.646V6.89062H111.456V14Z" fill="black" fill-opacity="0.5"/>
<g clip-path="url(#clip0_441_4326)">
<path d="M21 25.42V28.956C21.0001 29.2092 20.9042 29.453 20.7316 29.6382C20.559 29.8234 20.3226 29.9363 20.07 29.954C19.633 29.984 19.276 30 19 30C10.163 30 3 22.837 3 14C3 13.724 3.015 13.367 3.046 12.93C3.06372 12.6774 3.17658 12.441 3.3618 12.2684C3.54703 12.0958 3.79082 11.9999 4.044 12H7.58C7.70404 11.9999 7.8237 12.0459 7.91573 12.129C8.00776 12.2122 8.0656 12.3266 8.078 12.45C8.101 12.68 8.122 12.863 8.142 13.002C8.34073 14.3889 8.748 15.7378 9.35 17.003C9.445 17.203 9.383 17.442 9.203 17.57L7.045 19.112C8.36445 22.1865 10.8145 24.6365 13.889 25.956L15.429 23.802C15.4919 23.714 15.5838 23.6509 15.6885 23.6237C15.7932 23.5964 15.9042 23.6068 16.002 23.653C17.267 24.2539 18.6156 24.6601 20.002 24.858C20.141 24.878 20.324 24.9 20.552 24.922C20.6752 24.9346 20.7894 24.9926 20.8724 25.0846C20.9553 25.1766 21.0012 25.2961 21.001 25.42H21Z" fill="black"/>
</g>
<defs>
<clipPath id="clip0_441_4326">
<rect width="24" height="24" fill="white" transform="translate(0 9)"/>
</clipPath>
</defs>
</svg>
